Coordinates
version=1
nRows=32
nColumns=22
inDegrees=yes

Units are S.I. units (second, meters, Newtons, ...)
If the header above contains a line with 'inDegrees', this indicates whether rotational values are in degrees (yes) or radians (no).

endheader
time	pelvis_tilt	pelvis_list	pelvis_rotation	pelvis_tx	pelvis_ty	pelvis_tz	hip_flexion_r	hip_adduction_r	hip_rotation_r	knee_angle_r	ankle_angle_r	subtalar_angle_r	hip_flexion_l	hip_adduction_l	hip_rotation_l	knee_angle_l	ankle_angle_l	subtalar_angle_l	lumbar_extension	lumbar_bending	lumbar_rotation
      0.01000000	      0.43798093	      1.97335295	    -24.84747348	     -1.00793037	      0.90579675	     -0.37143866	     -4.38401390	     -1.94870750	     -9.16793648	     -3.89290930	     17.89553072	     -1.83478604	      0.76183191	      0.76323416	     -6.78159221	    -10.20042412	     12.65546283	      2.80723009	     -3.15362580	     -4.00801483	      3.62739477
      0.02000000	      0.43827206	      1.97346919	    -24.84769261	     -1.00792799	      0.90579454	     -0.37144519	     -4.38421513	     -1.94805560	     -9.16763607	     -3.89278537	     17.89582123	     -1.83517956	      0.76178557	      0.76393989	     -6.78170404	    -10.20027178	     12.65525643	      2.80737761	     -3.15375604	     -4.00806215	      3.62727271
      0.03000000	      0.43837569	      1.97358064	    -24.84777814	     -1.00792485	      0.90579225	     -0.37145091	     -4.38423273	     -1.94794445	     -9.16760117	     -3.89276780	     17.89586104	     -1.83523441	      0.76178668	      0.76395326	     -6.78171749	    -10.20024496	     12.65523890	      2.80739456	     -3.15378540	     -4.00808885	      3.62723083
      0.04000000	      0.45668824	      1.98125633	    -24.85298620	     -1.00790766	      0.90580603	     -0.37145770	     -4.40335010	     -1.96451462	     -9.13938021	     -3.88617145	     17.92392681	     -1.87857686	      0.74130662	      0.78178681	     -6.79751328	    -10.19009587	     12.64965015	      2.81834908	     -3.16872838	     -4.02128005	      3.60007889
      0.05000000	      0.45784837	      1.98040608	    -24.85878636	     -1.00791327	      0.90580560	     -0.37145684	     -4.40413931	     -1.96371021	     -9.14116733	     -3.88439622	     17.92380003	     -1.88246324	      0.74021729	      0.78202632	     -6.79501778	    -10.19156335	     12.64944182	      2.81895546	     -3.17050980	     -4.02214461	      3.60284458
      0.06000000	      0.45808203	      1.97994217	    -24.85924335	     -1.00790952	      0.90580372	     -0.37146576	     -4.40438779	     -1.96381793	     -9.14117448	     -3.88446492	     17.92379511	     -1.88288715	      0.74027758	      0.78222932	     -6.79492024	    -10.19156148	     12.64950638	      2.81900618	     -3.17059935	     -4.02224296	      3.60287507
      0.07000000	      0.47854951	      1.97571823	    -24.86834258	     -1.00791035	      0.90582993	     -0.37146082	     -4.42063768	     -1.97043496	     -9.12605542	     -3.89397816	     17.92755290	     -1.93393651	      0.71825524	      0.78792069	     -6.80051902	    -10.19417362	     12.66416995	      2.82197261	     -3.19507958	     -4.02784325	      3.59705142
      0.08000000	      0.47850529	      1.97502672	    -24.87470243	     -1.00790993	      0.90582865	     -0.37146272	     -4.42135982	     -1.97054983	     -9.12716547	     -3.89066031	     17.92864666	     -1.93594868	      0.71791078	      0.78799880	     -6.80015782	    -10.19451582	     12.66389120	      2.82176557	     -3.19483623	     -4.02625132	      3.59583130
      0.09000000	      0.47854069	      1.97427815	    -24.87576815	     -1.00790538	      0.90582678	     -0.37146994	     -4.42183346	     -1.97055457	     -9.12709840	     -3.89057701	     17.92877905	     -1.93623409	      0.71805020	      0.78816912	     -6.80014275	    -10.19465318	     12.66393721	      2.82170637	     -3.19460717	     -4.02640259	      3.59544869
      0.10000000	      0.47983759	      1.97296396	    -24.88483278	     -1.00790061	      0.90582758	     -0.37145606	     -4.42318895	     -1.97032690	     -9.12632940	     -3.88949392	     17.92955494	     -1.93776462	      0.71627070	      0.78767899	     -6.79948475	    -10.19828549	     12.66448584	      2.82125422	     -3.19327148	     -4.02612980	      3.59183101
      0.11000000	      0.48127315	      1.97129083	    -24.89240557	     -1.00790021	      0.90582842	     -0.37145062	     -4.42478704	     -1.96993249	     -9.12353520	     -3.88873041	     17.93053872	     -1.93976345	      0.71523640	      0.78717435	     -6.80020242	    -10.20210955	     12.66558535	      2.82049462	     -3.19437950	     -4.02520602	      3.58819955
      0.12000000	      0.48105915	      1.97050955	    -24.89292116	     -1.00789297	      0.90582806	     -0.37145690	     -4.42515150	     -1.96997860	     -9.12332278	     -3.88884562	     17.93058452	     -1.93988065	      0.71544388	      0.78735459	     -6.80027714	    -10.20227012	     12.66564762	      2.82044704	     -3.19449101	     -4.02541430	      3.58802510
      0.13000000	      0.48278165	      1.96810490	    -24.90302627	     -1.00789383	      0.90582921	     -0.37143723	     -4.42723143	     -1.96824929	     -9.12078956	     -3.88900388	     17.93096499	     -1.94128745	      0.71425424	      0.78574440	     -6.79990666	    -10.20821964	     12.66616299	      2.81985339	     -3.19481243	     -4.02583186	      3.58512985
      0.14000000	      0.49277389	      1.95134516	    -24.91344131	     -1.00792265	      0.90585063	     -0.37143911	     -4.44054167	     -1.95793563	     -9.08408852	     -3.89196870	     17.92995320	     -1.95574772	      0.71320286	      0.77133919	     -6.82279937	    -10.23881403	     12.67376372	      2.81331882	     -3.22178099	     -4.01315055	      3.58911592
      0.15000000	      0.49255841	      1.94968462	    -24.92074347	     -1.00791726	      0.90585200	     -0.37141810	     -4.44235331	     -1.95599595	     -9.08503916	     -3.89028612	     17.92920700	     -1.95701491	      0.71210794	      0.76951802	     -6.82348241	    -10.24011293	     12.67468777	      2.81299117	     -3.21955232	     -4.01573929	      3.58849808
      0.16000000	      0.49206103	      1.94765897	    -24.92871110	     -1.00791623	      0.90585336	     -0.37140300	     -4.44333311	     -1.95464841	     -9.08512682	     -3.88768320	     17.92776409	     -1.95844867	      0.71174351	      0.76704530	     -6.82448748	    -10.24237154	     12.67571288	      2.81247528	     -3.22010702	     -4.01682677	      3.58873895
      0.17000000	      0.49151066	      1.94400173	    -24.93852728	     -1.00791789	      0.90585752	     -0.37138494	     -4.44504468	     -1.95115136	     -9.08279307	     -3.88427029	     17.92441075	     -1.96058441	      0.71164681	      0.76338777	     -6.82720453	    -10.24728207	     12.67732008	      2.81139486	     -3.22249153	     -4.01710605	      3.59053937
      0.18000000	      0.49215947	      1.92148328	    -24.95538981	     -1.00793447	      0.90587503	     -0.37135868	     -4.46238499	     -1.92966280	     -9.04334678	     -3.86767575	     17.89453808	     -1.97474919	      0.71349561	      0.73753899	     -6.86640139	    -10.27395597	     12.69105410	      2.80256100	     -3.23866279	     -3.99655929	      3.61327143
      0.19000000	      0.49063042	      1.92012865	    -24.96282969	     -1.00792854	      0.90587544	     -0.37133599	     -4.46270875	     -1.92875525	     -9.04326394	     -3.86571012	     17.89420182	     -1.97539950	      0.71284377	      0.73496431	     -6.86656029	    -10.27414109	     12.69201660	      2.80246917	     -3.23836428	     -4.00034218	      3.61017365
      0.20000000	      0.48843959	      1.91848028	    -24.97130056	     -1.00792356	      0.90587549	     -0.37131889	     -4.46266157	     -1.92746585	     -9.04220795	     -3.86271545	     17.89355847	     -1.97595020	      0.71260686	      0.73279085	     -6.86732923	    -10.27425413	     12.69292644	      2.80237527	     -3.23944791	     -4.00232241	      3.60705381
      0.21000000	      0.48581860	      1.91641584	    -24.98005875	     -1.00791737	      0.90587417	     -0.37129941	     -4.46284115	     -1.92538992	     -9.03962890	     -3.85915638	     17.89249132	     -1.97639828	      0.71221004	      0.72979357	     -6.86915627	    -10.27395681	     12.69398373	      2.80226508	     -3.24046458	     -4.00372437	      3.60392401
      0.22000000	      0.48397461	      1.91564939	    -24.98084020	     -1.00789307	      0.90587229	     -0.37130140	     -4.46338367	     -1.92555698	     -9.03937763	     -3.85912452	     17.89239446	     -1.97642167	      0.71206627	      0.72983823	     -6.86935726	    -10.27398093	     12.69407174	      2.80225580	     -3.24093530	     -4.00416792	      3.60370149
      0.23000000	      0.48045735	      1.91324624	    -24.99340836	     -1.00789747	      0.90586870	     -0.37126509	     -4.46262010	     -1.92111785	     -9.03610842	     -3.85359012	     17.89117405	     -1.97658354	      0.71148235	      0.72468736	     -6.87172219	    -10.27250216	     12.69576689	      2.80202649	     -3.24220821	     -4.00780345	      3.59969275
      0.24000000	      0.46752844	      1.90088351	    -25.01040601	     -1.00785665	      0.90585848	     -0.37122211	     -4.47231327	     -1.90251696	     -8.98648452	     -3.82431294	     17.87463904	     -1.97769392	      0.70408573	      0.70613373	     -6.91025984	    -10.25501589	     12.71633089	      2.79883200	     -3.22828678	     -3.98785055	      3.60463607
      0.25000000	      0.46619424	      1.89974772	    -25.01577902	     -1.00785524	      0.90585952	     -0.37119988	     -4.47230228	     -1.89968067	     -8.98500948	     -3.82245971	     17.87300631	     -1.97814439	      0.70493594	      0.70409787	     -6.90915250	    -10.25776885	     12.71743428	      2.79859640	     -3.23174484	     -3.99395118	      3.60654634
      0.26000000	      0.46461345	      1.89933896	    -25.01613397	     -1.00783001	      0.90585813	     -0.37120000	     -4.47270238	     -1.90005876	     -8.98481304	     -3.82238222	     17.87284571	     -1.97818598	      0.70469891	      0.70395109	     -6.90917652	    -10.25807268	     12.71760502	      2.79855199	     -3.23227234	     -3.99451278	      3.60681481
      0.27000000	      0.46236994	      1.89827431	    -25.02075391	     -1.00782381	      0.90585539	     -0.37116821	     -4.47387026	     -1.89629457	     -8.98207338	     -3.81741247	     17.87057034	     -1.97867493	      0.70511174	      0.70016857	     -6.90983583	    -10.25910967	     12.72107166	      2.79760214	     -3.23291813	     -4.00199523	      3.61143048
      0.28000000	      0.46072698	      1.89807160	    -25.02084098	     -1.00779527	      0.90585487	     -0.37116847	     -4.47447374	     -1.89646913	     -8.98186381	     -3.81732394	     17.87040661	     -1.97870703	      0.70486579	      0.70039797	     -6.90999057	    -10.25928222	     12.72132230	      2.79752362	     -3.23322088	     -4.00220666	      3.61183566
      0.29000000	      0.45908229	      1.89786637	    -25.02085899	     -1.00776551	      0.90585254	     -0.37116656	     -4.47529449	     -1.89633624	     -8.98160731	     -3.81696754	     17.87013465	     -1.97874955	      0.70463146	      0.70042389	     -6.91022461	    -10.25937626	     12.72178071	      2.79736914	     -3.23322865	     -4.00283705	      3.61258007
      0.30000000	      0.45094215	      1.89788877	    -25.02318701	     -1.00771215	      0.90584204	     -0.37113577	     -4.49052670	     -1.88933820	     -8.97354884	     -3.77932883	     17.85535632	     -1.98102378	      0.70581624	      0.69619412	     -6.92000438	    -10.25494190	     12.74605482	      2.78827810	     -3.21900567	     -4.00616321	      3.64565608
      0.31000000	      0.44910529	      1.89776852	    -25.02342380	     -1.00767727	      0.90584332	     -0.37113429	     -4.49139203	     -1.88929127	     -8.97332303	     -3.77976923	     17.85515987	     -1.98105460	      0.70545433	      0.69634556	     -6.92004861	    -10.25523850	     12.74617367	      2.78816013	     -3.21933710	     -4.00663849	      3.64555059
      0.32000000	      0.44723446	      1.89769587	    -25.02339683	     -1.00763954	      0.90584444	     -0.37113180	     -4.49247845	     -1.88915617	     -8.97316508	     -3.78024003	     17.85492588	     -1.98108986	      0.70504555	      0.69646665	     -6.92010091	    -10.25554169	     12.74632643	      2.78801702	     -3.21945949	     -4.00722151	      3.64560032
